{"title":"Gravity 2013 HQ-SCR H264 AC3 MURDER","uid":9347000,"size":1337046156,"categoryP":"video","categoryS":"movies","magnet":"?xt=urn:btih:378198e7c235d3ddd2d31a03c06eed3b75c8c2b4&amp;dn=Gravity+2013+HQ-SCR+H264+AC3+MURDER&amp;tr=udp%3A%2F%2Ftracker.openbittorrent.com%3A80&amp;tr=udp%3A%2F%2Fopen.demonii.com%3A1337&amp;tr=udp%3A%2F%2Ftracker.coppersurfer.tk%3A6969&amp;tr=udp%3A%2F%2Fexodus.desync.com%3A6969","seeders":1,"leechers":0,"uploader":"darkj6","files":-1,"time":1387055142,"description":" ______   _______  ______    ___   _      ___  --------|\n|      | |   _   ||    _ |  |   | | |    |   ||   |----|    \n|  _    ||  |_|  ||   | ||  |   |_| |    |   ||   |___ \n| | |   ||       ||   |_||_ |      _|    |   ||    _  |\n| |_|   ||       ||    __  ||     |_  ___|   ||   | | |\n|       ||   _   ||   |  | ||    _  ||       ||   |_| |\n|______| |__| |__||___|  |_||___| |_||_______||_______|\n\nFormat                                   : AVI\nFormat/Info                              : Audio Video Interleave\nFile size                                : 1.24 GiB\nDuration                                 : 1h 30mn\nOverall bit rate                         : 1 955 Kbps\n\nVideo\nID                                       : 0\nFormat                                   : AVC\nFormat/Info                              : Advanced Video Codec\nFormat profile                           : &lt;a class=&quot;__cf_email__&quot; href=&quot;/cdn-cgi/l/email-protection&quot; data-cfemail=&quot;6e260709062e225c405f&quot;&gt;[email&amp;#160;protected]&lt;/a&gt;&lt;script data-cfhash='f9e31' type=&quot;text/javascript&quot;&gt;\n/* &lt;![CDATA[ */!function(){try{var t=&quot;currentScript&quot;in document?document.currentScript:function(){for(var t=document.getElementsByTagName(&quot;script&quot;),e=t.length;e--;)if(t[e].getAttribute(&quot;data-cfhash&quot;))return t[e]}();if(t&amp;&amp;t.previousSibling){var e,r,n,i,c=t.previousSibling,a=c.getAttribute(&quot;data-cfemail&quot;);if(a){for(e=&quot;&quot;,r=parseInt(a.substr(0,2),16),n=2;a.length-n;n+=2)i=parseInt(a.substr(n,2),16)^r,e+=String.fromCharCode(i);e=document.createTextNode(e),c.parentNode.replaceChild(e,c)}t.parentNode.removeChild(t);}}catch(u){}}()/* ]]&gt; */&lt;/script&gt;\nFormat settings, CABAC                   : Yes\nFormat settings, ReFrames                : 4 frames\nCodec ID                                 : H264\nDuration                                 : 1h 30mn\nBit rate                                 : 1 800 Kbps\nWidth                                    : 680 pixels\nHeight                                   : 274 pixels\nDisplay aspect ratio                     : 2.482\nFrame rate                               : 23.976 fps\nColor space                              : YUV\nChroma subsampling                       : 4:2:0\nBit depth                                : 8 bits\nScan type                                : Progressive\nBits/(Pixel*Frame)                       : 0.403\nStream size                              : 1.11 GiB (90%)\nWriting library                          : x264 core \n\nAudio\nID                                       : 1\nFormat                                   : AC-3\nFormat/Info                              : Audio Coding 3\nMode extension                           : CM (complete main)\nFormat settings, Endianness              : Big\nCodec ID                                 : 2000\nDuration                                 : 1h 30mn\nBit rate mode                            : Constant\nBit rate                                 : 192 Kbps\nChannel(s)                               : 2 channels\nChannel positions                        : Front: L R\nSampling rate                            : 44.1 KHz\nBit depth                                : 16 bits\nCompression mode                         : Lossy\nStream size                              : 125 MiB (10%)\nAlignment                                : Aligned on interleaves\nInterleave, duration                     : 35 ms (0.84 video frame)\n\n\n\n________________$$$$\n______________$$____$$\n______________$$____$$\n______________$$____$$\n______________$$____$$\n______________$$____$$\n__________$$$$$$____$$$$$$\n________$$____$$____$$____$$$$\n________$$____$$____$$____$$__$$\n$$$$$$__$$____$$____$$____$$____$$\n$$____$$$$________________$$____$$\n$$______$$______________________$$\n__$$____$$______________________$$\n___$$$__$$______________________$$\n____$$__________________________$$\n_____$$$________________________$$\n______$$______________________$$$\n_______$$$____________________$$\n________$$____________________$$\n_________$$$________________$$$\n__________$$________________$$\n__________$$$$$$$$$$$$$$$$$$$$\n &lt;a href=&quot;\nhttp://s20.postimg.org/lp57cuge5/vlcsnap_2013_12_13_17h48m28s203.png&quot; rel=&quot;nofollow&quot; target=&quot;_NEW&quot;&gt;\nhttp://s20.postimg.org/lp57cuge5/vlcsnap_2013_12_13_17h48m28s203.png&lt;/a&gt;\n &lt;a href=&quot;\nhttp://s20.postimg.org/rc1kabiwt/vlcsnap_2013_12_13_17h48m04s217.png&quot; rel=&quot;nofollow&quot; target=&quot;_NEW&quot;&gt;\nhttp://s20.postimg.org/rc1kabiwt/vlcsnap_2013_12_13_17h48m04s217.png&lt;/a&gt;\n &lt;a href=&quot;\nhttp://s20.postimg.org/7swz0yk59/vlcsnap_2013_12_13_17h48m23s153.png&quot; rel=&quot;nofollow&quot; target=&quot;_NEW&quot;&gt;\nhttp://s20.postimg.org/7swz0yk59/vlcsnap_2013_12_13_17h48m23s153.png&lt;/a&gt;\n &lt;a href=&quot;\nhttp://s20.postimg.org/fx0hryh6l/vlcsnap_2013_12_13_17h47m00s96.png&quot; rel=&quot;nofollow&quot; target=&quot;_NEW&quot;&gt;\nhttp://s20.postimg.org/fx0hryh6l/vlcsnap_2013_12_13_17h47m00s96.png&lt;/a&gt;\n &lt;a href=&quot;\nhttp://s20.postimg.org/7dh3u78u5/vlcsnap_2013_12_13_17h48m26s187.png&quot; rel=&quot;nofollow&quot; target=&quot;_NEW&quot;&gt;\nhttp://s20.postimg.org/7dh3u78u5/vlcsnap_2013_12_13_17h48m26s187.png&lt;/a&gt;\n &lt;a href=&quot;\nhttp://s20.postimg.org/uqf5cpoxp/vlcsnap_2013_12_13_17h47m29s123.png&quot; rel=&quot;nofollow&quot; target=&quot;_NEW&quot;&gt;\nhttp://s20.postimg.org/uqf5cpoxp/vlcsnap_2013_12_13_17h47m29s123.png&lt;/a&gt;\n &lt;a href=&quot;\nhttp://s20.postimg.org/68n1otmd9/vlcsnap_2013_12_13_17h46m16s169.png&quot; rel=&quot;nofollow&quot; target=&quot;_NEW&quot;&gt;\nhttp://s20.postimg.org/68n1otmd9/vlcsnap_2013_12_13_17h46m16s169.png&lt;/a&gt;\n &lt;a href=&quot;\nhttp://s20.postimg.org/552xcv1q5/vlcsnap_2013_12_13_17h46m20s205.png&quot; rel=&quot;nofollow&quot; target=&quot;_NEW&quot;&gt;\nhttp://s20.postimg.org/552xcv1q5/vlcsnap_2013_12_13_17h46m20s205.png&lt;/a&gt;\n &lt;a href=&quot;\nhttp://s20.postimg.org/4r1ld9hml/vlcsnap_2013_12_13_17h46m25s4.png&quot; rel=&quot;nofollow&quot; target=&quot;_NEW&quot;&gt;\nhttp://s20.postimg.org/4r1ld9hml/vlcsnap_2013_12_13_17h46m25s4.png&lt;/a&gt;\n\n\n","torrent":{"xt":"urn:btih:378198e7c235d3ddd2d31a03c06eed3b75c8c2b4","amp;dn":"Gravity+2013+HQ-SCR+H264+AC3+MURDER","amp;tr":["udp%3A%2F%2Ftracker.openbittorrent.com%3A80","udp%3A%2F%2Fopen.demonii.com%3A1337","udp%3A%2F%2Ftracker.coppersurfer.tk%3A6969","udp%3A%2F%2Fexodus.desync.com%3A6969"],"infoHash":"378198e7c235d3ddd2d31a03c06eed3b75c8c2b4","infoHashBuffer":{"type":"Buffer","data":[55,129,152,231,194,53,211,221,210,211,26,3,192,110,237,59,117,200,194,180]},"announce":[],"urlList":[]}}